<svg width="24" height="24" viewBox="0 0 24 24" fill="none" xmlns="http://www.w3.org/2000/svg">
<path d="M17 6.5H17.5M3 9.4C3 7.16 3 6.04 3.436 5.184C3.81949 4.43139 4.43139 3.81949 5.184 3.436C6.04 3 7.16 3 9.4 3H14.6C16.84 3 17.96 3 18.816 3.436C19.5686 3.81949 20.1805 4.43139 20.564 5.184C21 6.04 21 7.16 21 9.4V14.6C21 16.84 21 17.96 20.564 18.816C20.1805 19.5686 19.5686 20.1805 18.816 20.564C17.96 21 16.84 21 14.6 21H9.4C7.16 21 6.04 21 5.184 20.564C4.43139 20.1805 3.81949 19.5686 3.436 18.816C3 17.96 3 16.84 3 14.6V9.4Z" stroke="black" stroke-width="1.5" stroke-linecap="round" stroke-linejoin="round"/>
<path d="M15.3948 12.8511C15.5065 12.4052 15.5294 11.9417 15.462 11.487C15.3259 10.5687 14.8307 9.74204 14.0851 9.1889C13.3396 8.63576 12.4048 8.40145 11.4865 8.53751C10.5682 8.67356 9.74154 9.16884 9.1884 9.91439C8.63526 10.6599 8.40095 11.5947 8.537 12.513C8.67306 13.4313 9.16834 14.258 9.91389 14.8111C10.2831 15.085 10.7025 15.2835 11.1484 15.3953C11.5943 15.507 12.0578 15.5299 12.5125 15.4625C12.9672 15.3951 13.4042 15.2389 13.7985 15.0026C14.1928 14.7664 14.5367 14.4548 14.8106 14.0856C15.0845 13.7165 15.283 13.297 15.3948 12.8511Z" stroke="black" stroke-width="1.5" stroke-linecap="round" stroke-linejoin="round"/>
</svg>
