<svg width="147" height="26" viewBox="0 0 147 26" fill="none" xmlns="http://www.w3.org/2000/svg">
<path d="M20.064 23.328C20.0427 23.456 19.9147 23.488 19.68 23.424C19.4667 23.3813 19.2747 23.232 19.104 22.976C18.9333 22.5707 18.848 22.1973 18.848 21.856C18.848 21.5147 18.8587 21.0027 18.88 20.32C19.008 19.5733 19.1787 18.6027 19.392 17.408C19.6267 16.192 19.8933 14.8373 20.192 13.344C20.512 11.8293 20.8533 10.2507 21.216 8.60801C21.472 7.75467 21.6747 6.97601 21.824 6.27201C21.9947 5.54667 22.1227 4.96001 22.208 4.51201C22.2933 4.06401 22.336 3.84001 22.336 3.84001C22.336 3.77601 22.272 3.80801 22.144 3.93601C22.0373 4.04267 21.9307 4.17067 21.824 4.32001C21.7173 4.46934 21.6747 4.58667 21.696 4.67201C21.696 4.67201 21.6213 4.77867 21.472 4.99201C21.3227 5.20534 21.1307 5.49334 20.896 5.85601C20.6827 6.06934 20.4267 6.49601 20.128 7.13601C19.8293 7.77601 19.4987 8.37334 19.136 8.92801C18.7947 9.56801 18.432 10.2613 18.048 11.008C17.664 11.7333 17.3227 12.3413 17.024 12.832C16.832 13.1093 16.64 13.4293 16.448 13.792C16.256 14.1547 16.1387 14.3893 16.096 14.496C16.0107 14.7307 15.8613 15.0187 15.648 15.36C15.4347 15.68 15.2 16 14.944 16.32C14.816 16.512 14.688 16.7147 14.56 16.928C14.432 17.12 14.3253 17.2907 14.24 17.44C14.176 17.568 14.144 17.632 14.144 17.632C14.144 17.696 14.0373 17.888 13.824 18.208C13.632 18.528 13.3867 18.88 13.088 19.264C12.8107 19.648 12.544 19.9787 12.288 20.256C11.5413 21.0453 10.944 21.5147 10.496 21.664C10.048 21.792 9.54665 21.6 8.99199 21.088C8.71465 20.7467 8.51199 20.3627 8.38399 19.936C8.25599 19.488 8.20265 18.944 8.22399 18.304C8.24532 17.6427 8.31999 16.8213 8.44799 15.84C8.59732 15.0933 8.73599 14.3467 8.86399 13.6C8.99199 12.832 9.10932 12.1173 9.21599 11.456C9.34399 10.7733 9.45065 10.1973 9.53599 9.72801C9.64265 9.25867 9.72799 8.94934 9.79199 8.80001C9.83465 8.37334 9.82399 8.13867 9.75999 8.09601C9.69599 8.05334 9.56799 8.18134 9.37599 8.48001C9.29065 8.62934 9.06665 9.00267 8.70399 9.60001C8.34132 10.176 7.91465 10.8907 7.42399 11.744C6.95465 12.5973 6.48532 13.5253 6.01599 14.528C5.14132 16.1493 4.41599 17.4933 3.83999 18.56C3.28532 19.6053 2.83732 20.4373 2.49599 21.056C2.17599 21.6747 1.94132 22.1333 1.79199 22.432C1.64265 22.7307 1.53599 22.9333 1.47199 23.04C1.40799 23.1467 1.35465 23.2213 1.31199 23.264C1.11999 23.264 0.917321 23.1787 0.703987 23.008C0.511987 22.8587 0.309321 22.6773 0.0959873 22.464C0.0319873 22.3147 -1.26362e-05 22.1653 -1.26362e-05 22.016C0.0213207 21.8667 0.0959873 21.6533 0.223987 21.376C0.351987 21.0773 0.543987 20.6293 0.799987 20.032C1.07732 19.4773 1.33332 18.9973 1.56799 18.592C1.80265 18.1653 1.98399 17.9093 2.11199 17.824C2.21865 17.6533 2.31465 17.4827 2.39999 17.312C2.48532 17.1413 2.53865 16.9387 2.55999 16.704C2.66665 16.576 2.82665 16.32 3.03999 15.936C3.27465 15.5307 3.50932 15.0933 3.74399 14.624C3.91465 14.3467 4.12799 13.984 4.38399 13.536C4.66132 13.088 4.94932 12.5973 5.24799 12.064C5.54665 11.5093 5.81332 10.9867 6.04799 10.496C7.02932 8.81067 7.86132 7.39201 8.54399 6.24001C9.22665 5.06667 9.73865 4.32001 10.08 4.00001C10.1867 3.89334 10.2933 3.74401 10.4 3.55201C10.528 3.36001 10.592 3.18934 10.592 3.04001C10.592 2.59201 10.6773 2.18667 10.848 1.82401C11.04 1.44001 11.232 1.26934 11.424 1.31201C11.6373 1.31201 11.8293 1.33334 12 1.37601C12.1707 1.41867 12.352 1.55734 12.544 1.79201C12.7147 2.04801 12.864 2.30401 12.992 2.56001C13.12 2.81601 13.1093 3.32801 12.96 4.09601C12.96 4.39467 12.928 4.73601 12.864 5.12001C12.8 5.48267 12.736 5.82401 12.672 6.14401C12.6293 6.44267 12.5973 6.67734 12.576 6.84801C12.2987 7.68001 12.0427 8.61867 11.808 9.66401C11.5733 10.688 11.36 11.7333 11.168 12.8C10.976 13.8453 10.816 14.8267 10.688 15.744C10.56 16.64 10.4747 17.3867 10.432 17.984C10.4107 18.56 10.432 18.8907 10.496 18.976C10.6453 19.0613 10.7733 19.072 10.88 19.008C10.9867 18.944 11.168 18.6667 11.424 18.176C11.5733 17.92 11.776 17.6107 12.032 17.248C12.3093 16.864 12.576 16.512 12.832 16.192C13.0027 15.8933 13.2693 15.4453 13.632 14.848C13.9947 14.2507 14.4533 13.4827 15.008 12.544C15.584 11.6053 16.2667 10.464 17.056 9.12001C17.8667 7.75467 18.784 6.17601 19.808 4.38401C20.2987 3.63734 20.7573 2.91201 21.184 2.20801C21.632 1.48267 21.9947 1.01334 22.272 0.800007C22.5707 0.522673 22.88 0.458673 23.2 0.608006C23.52 0.736006 23.7973 1.01334 24.032 1.44001C24.288 1.86667 24.4267 2.40001 24.448 3.04001C24.4693 3.33867 24.4267 3.81867 24.32 4.48001C24.2347 5.14134 24.096 5.89867 23.904 6.75201C23.712 7.58401 23.4667 8.44801 23.168 9.34401C23.104 9.70667 22.9973 10.1653 22.848 10.72C22.72 11.2533 22.5707 11.808 22.4 12.384C22.2293 12.96 22.0587 13.504 21.888 14.016C21.7813 14.72 21.6533 15.4133 21.504 16.096C21.376 16.7787 21.3333 17.2373 21.376 17.472C21.184 17.8133 21.056 18.304 20.992 18.944C20.928 19.584 20.896 20.2453 20.896 20.928C20.8107 21.76 20.7467 22.3467 20.704 22.688C20.6613 23.0293 20.5867 23.1893 20.48 23.168C20.2027 23.0827 20.064 23.136 20.064 23.328ZM43.0952 22.496C43.0952 22.496 43.0419 22.4213 42.9352 22.272C42.8286 22.144 42.6686 21.9413 42.4552 21.664C42.3486 21.3653 42.2419 20.896 42.1352 20.256C42.0499 19.5947 42.0392 18.752 42.1032 17.728C42.0606 17.408 42.0606 16.896 42.1032 16.192C42.1672 15.488 42.2526 14.7093 42.3592 13.856C42.4872 12.9813 42.6152 12.1387 42.7432 11.328C42.8926 10.5173 43.0312 9.86667 43.1592 9.37601C43.2446 8.03201 43.3299 7.11467 43.4152 6.62401C43.5006 6.11201 43.5432 5.80267 43.5432 5.69601C43.5219 5.61067 43.3299 5.81334 42.9672 6.30401C42.6046 6.77334 42.1992 7.40267 41.7512 8.19201C41.4739 8.64001 41.2179 9.03467 40.9832 9.37601C40.7699 9.69601 40.6206 9.90934 40.5352 10.016C40.3432 10.2933 40.1619 10.6347 39.9912 11.04C39.8419 11.424 39.5219 12.0853 39.0312 13.024C38.1779 14.3467 37.5059 15.3387 37.0152 16C36.5459 16.64 36.1619 17.056 35.8632 17.248C35.5646 17.4187 35.2659 17.472 34.9672 17.408C34.3486 17.2587 33.9219 17.0027 33.6872 16.64C33.4739 16.2773 33.3459 15.6373 33.3032 14.72C33.2819 14.144 33.2712 13.6427 33.2712 13.216C33.2712 12.7893 33.2712 12.5013 33.2712 12.352C33.3566 12.16 33.3779 11.9467 33.3352 11.712C33.3139 11.4773 33.3139 11.3067 33.3352 11.2C33.3139 11.1147 33.3459 10.9547 33.4312 10.72C33.5379 10.464 33.6019 10.1867 33.6232 9.88801C33.6872 9.48267 33.7406 8.99201 33.7832 8.41601C33.8472 7.81867 33.8792 7.28534 33.8792 6.81601C33.9006 6.34667 33.8792 6.09067 33.8152 6.04801C33.8579 6.13334 33.8152 6.26134 33.6872 6.43201C33.5806 6.58134 33.4952 6.70934 33.4312 6.81601C33.0259 7.34934 32.5566 8.18134 32.0232 9.31201C31.4899 10.4213 30.8072 11.8293 29.9752 13.536C29.9112 14.0053 29.7299 14.6133 29.4312 15.36C29.1326 16.1067 28.8339 16.768 28.5352 17.344C28.4072 17.6853 28.2579 18.0693 28.0872 18.496C27.9166 18.9013 27.7459 19.2853 27.5752 19.648C27.4046 20.0107 27.2446 20.2987 27.0952 20.512C26.8179 21.28 26.5726 21.7387 26.3592 21.888C26.1672 22.0587 25.8472 21.9947 25.3992 21.696C25.1006 21.4187 24.8979 21.1413 24.7912 20.864C24.6846 20.5867 24.7486 20.2453 24.9832 19.84C25.1966 19.6053 25.4099 19.264 25.6232 18.816C25.8579 18.368 26.0499 17.9413 26.1992 17.536C26.3699 17.1307 26.4446 16.896 26.4232 16.832C26.4019 16.7467 26.4339 16.6293 26.5192 16.48C26.6259 16.3093 26.8392 15.9893 27.1592 15.52C27.1379 15.4347 27.2232 15.136 27.4152 14.624C27.6286 14.0907 27.9166 13.4613 28.2792 12.736C28.3432 12.6293 28.4072 12.5013 28.4712 12.352C28.5352 12.2027 28.5566 12.0747 28.5352 11.968C28.5992 11.8827 28.6526 11.7653 28.6952 11.616C28.7592 11.4667 28.8552 11.3493 28.9832 11.264C29.0259 11.072 29.1112 10.8373 29.2392 10.56C29.3672 10.2827 29.4419 10.048 29.4632 9.85601C29.5486 9.66401 29.6232 9.49334 29.6872 9.34401C29.7726 9.19467 29.8686 9.05601 29.9752 8.92801C30.0606 8.86401 30.1352 8.75734 30.1992 8.60801C30.2632 8.45867 30.3379 8.34134 30.4232 8.25601C30.5086 8.00001 30.6472 7.70134 30.8392 7.36001C31.0312 7.01867 31.2659 6.63467 31.5432 6.20801C31.8206 5.78134 32.1086 5.33334 32.4072 4.86401C32.5566 4.62934 32.6739 4.41601 32.7592 4.22401C32.8446 4.01067 32.9939 3.74401 33.2072 3.42401C33.2072 3.42401 33.2819 3.30667 33.4312 3.07201C33.6019 2.83734 33.7726 2.56001 33.9432 2.24001C34.0499 2.09067 34.1779 1.89867 34.3272 1.66401C34.4766 1.40801 34.6259 1.18401 34.7752 0.992006C34.9246 0.800006 35.0312 0.704006 35.0952 0.704006C35.2232 0.682673 35.4259 0.768007 35.7032 0.960007C35.9806 1.15201 36.2366 1.37601 36.4712 1.63201C36.7059 1.88801 36.8232 2.10134 36.8232 2.27201C36.8232 2.35734 36.8019 2.56001 36.7592 2.88001C36.7166 3.20001 36.6526 3.57334 36.5672 4.00001C36.4819 4.42667 36.3752 4.83201 36.2472 5.21601C36.2259 5.66401 36.1619 6.18667 36.0552 6.78401C35.9699 7.38134 35.8739 7.98934 35.7672 8.60801C35.6606 9.22667 35.5859 9.82401 35.5432 10.4C35.4792 11.1253 35.3619 11.7653 35.1912 12.32C35.0419 12.8747 34.9672 13.152 34.9672 13.152C35.0099 13.2373 35.0419 13.344 35.0632 13.472C35.1059 13.5787 35.1272 13.728 35.1272 13.92V14.624L36.3432 13.312C36.6419 12.8427 36.9192 12.416 37.1752 12.032C37.4526 11.6267 37.6979 11.2533 37.9112 10.912C37.9112 10.8053 37.9539 10.688 38.0392 10.56C38.1459 10.432 38.2312 10.2613 38.2952 10.048C38.4232 9.96267 38.5406 9.83467 38.6472 9.66401C38.7752 9.49334 38.8286 9.31201 38.8072 9.12001C39.0206 8.80001 39.3192 8.37334 39.7032 7.84001C40.0872 7.28534 40.5032 6.69867 40.9512 6.08001C41.4206 5.44001 41.8792 4.82134 42.3272 4.22401C42.7752 3.62667 43.1699 3.11467 43.5112 2.68801C43.8739 2.24001 44.1299 1.95201 44.2792 1.82401C44.5779 1.58934 44.8979 1.46134 45.2392 1.44001C45.6019 1.41867 45.9539 1.58934 46.2952 1.95201C46.5726 2.25067 46.7326 2.53867 46.7752 2.81601C46.8179 3.07201 46.7432 3.44534 46.5512 3.93601C46.2952 4.78934 46.0392 5.58934 45.7832 6.33601C45.5272 7.08267 45.4099 7.60534 45.4312 7.90401C45.3459 8.09601 45.2819 8.33067 45.2392 8.60801C45.1966 8.88534 45.1646 9.10934 45.1432 9.28001C45.0579 9.47201 44.9939 9.65334 44.9512 9.82401C44.9299 9.99467 44.8659 10.1227 44.7592 10.208C44.7592 10.3147 44.7806 10.496 44.8232 10.752C44.8872 10.9867 44.8979 11.232 44.8552 11.488C44.5566 13.408 44.3539 15.008 44.2472 16.288C44.1406 17.5467 44.1299 18.5067 44.2152 19.168C44.3219 19.808 44.5139 20.1707 44.7912 20.256C44.8766 20.2347 44.9192 20.2773 44.9192 20.384C44.9406 20.4907 44.9086 20.7467 44.8232 21.152C44.8446 21.28 44.8339 21.4293 44.7912 21.6C44.7699 21.7493 44.7379 21.888 44.6952 22.016C44.6526 22.144 44.6099 22.24 44.5672 22.304C44.3752 22.5173 44.2152 22.6347 44.0872 22.656C43.9806 22.6773 43.6499 22.624 43.0952 22.496ZM54.9905 22.656C54.8838 22.6347 54.7665 22.5813 54.6385 22.496C54.5105 22.4107 54.4038 22.3147 54.3185 22.208C54.2332 22.1013 54.1905 22.0267 54.1905 21.984C54.2118 21.8773 54.1692 21.824 54.0625 21.824C54.0625 21.824 54.0412 21.76 53.9985 21.632C53.9558 21.4827 53.9452 21.3333 53.9665 21.184C53.9665 21.12 53.9772 20.96 53.9985 20.704C54.0198 20.448 54.0305 20.2453 54.0305 20.096C54.0732 19.6693 54.1798 19.104 54.3505 18.4C54.5212 17.696 54.7238 16.96 54.9585 16.192C55.1932 15.4027 55.4172 14.6987 55.6305 14.08C55.9292 13.312 56.0572 12.8427 56.0145 12.672C55.9932 12.5013 55.7265 12.4373 55.2145 12.48C54.5532 12.5867 53.9452 12.5013 53.3905 12.224C52.8572 11.9467 52.4305 11.5413 52.1105 11.008C51.7905 10.4533 51.6518 9.86667 51.6945 9.24801C51.7158 8.92801 51.7798 8.64001 51.8865 8.38401C52.0145 8.10667 52.2172 7.73334 52.4945 7.26401C52.9425 6.60267 53.4332 6.01601 53.9665 5.50401C54.4998 4.97067 55.0545 4.53334 55.6305 4.19201C56.2278 3.85067 56.8038 3.62667 57.3585 3.52001C57.6998 3.45601 58.1052 3.43467 58.5745 3.45601C59.0438 3.47734 59.4065 3.54134 59.6625 3.64801C59.9825 3.77601 60.2812 4.02134 60.5585 4.38401C60.8572 4.72534 61.0918 5.08801 61.2625 5.47201C61.4332 5.85601 61.4865 6.17601 61.4225 6.43201C61.2732 7.13601 61.1025 7.66934 60.9105 8.03201C60.7185 8.39467 60.4838 8.72534 60.2065 9.02401C59.8652 9.32267 59.4598 9.86667 58.9905 10.656C58.5425 11.4453 58.0838 12.352 57.6145 13.376C57.1665 14.3787 56.7718 15.3707 56.4305 16.352C56.1318 17.248 55.9398 18.0587 55.8545 18.784C55.7905 19.5093 55.8332 19.8827 55.9825 19.904C56.0678 19.904 56.1745 19.936 56.3025 20C56.4518 20.064 56.5692 20.096 56.6545 20.096C56.7185 20.1813 56.7505 20.2773 56.7505 20.384C56.7505 20.4907 56.6972 20.6613 56.5905 20.896C56.5265 21.0453 56.4198 21.2267 56.2705 21.44C56.1425 21.632 55.9932 21.824 55.8225 22.016C55.6518 22.208 55.4918 22.3573 55.3425 22.464C55.1932 22.592 55.0758 22.656 54.9905 22.656ZM53.5505 10.464C53.8705 10.8053 54.3078 10.912 54.8625 10.784C55.4172 10.656 55.9932 10.3573 56.5905 9.88801C57.2092 9.41867 57.7425 8.83201 58.1905 8.12801C58.4465 7.82934 58.6598 7.55201 58.8305 7.29601C59.0225 7.01867 59.1612 6.84801 59.2465 6.78401C59.5238 6.48534 59.6732 6.24001 59.6945 6.04801C59.7372 5.85601 59.6838 5.68534 59.5345 5.53601C59.3852 5.30134 59.1718 5.17334 58.8945 5.15201C58.6172 5.13067 58.2225 5.21601 57.7105 5.40801C57.3692 5.47201 57.0492 5.57867 56.7505 5.72801C56.4732 5.85601 56.1105 6.06934 55.6625 6.36801C55.5772 6.45334 55.4918 6.50667 55.4065 6.52801C55.3212 6.52801 55.2358 6.51734 55.1505 6.49601C55.1505 6.49601 55.1292 6.50667 55.0865 6.52801C55.0438 6.52801 55.0225 6.57067 55.0225 6.65601C55.1292 6.84801 55.0012 7.09334 54.6385 7.39201C54.0838 7.98934 53.7105 8.59734 53.5185 9.21601C53.3265 9.81334 53.3372 10.2293 53.5505 10.464ZM64.7247 21.024C64.3407 20.7467 64.1487 20.512 64.1487 20.32C64.0634 20.192 63.9674 20.128 63.8607 20.128C63.7967 20.1493 63.7327 20.0853 63.6687 19.936C63.6261 19.7867 63.5834 19.616 63.5407 19.424C63.5194 19.2107 63.5194 19.0613 63.5407 18.976C63.6261 18.8053 63.7541 18.7093 63.9247 18.688C64.0954 18.6453 64.2554 18.6667 64.4047 18.752C64.5754 18.816 64.6714 18.9333 64.6927 19.104C64.7354 19.2747 64.8954 19.4133 65.1727 19.52C65.4714 19.6267 65.8554 19.6693 66.3247 19.648C66.9221 19.6267 67.5407 19.4773 68.1807 19.2C68.8421 18.9227 69.4501 18.5707 70.0047 18.144C70.5807 17.7173 71.0394 17.28 71.3807 16.832C71.5301 16.5333 71.6687 16.1387 71.7967 15.648C71.9247 15.1573 72.0101 14.72 72.0527 14.336C72.0954 13.952 72.0634 13.76 71.9567 13.76C71.9567 13.76 71.9354 13.6853 71.8927 13.536C71.8714 13.3867 71.8287 13.2267 71.7647 13.056C71.6581 12.736 71.4127 12.416 71.0287 12.096C70.6447 11.7547 70.2714 11.5093 69.9087 11.36C69.7594 11.3173 69.4821 11.2853 69.0767 11.264C68.6927 11.2213 68.3407 11.2213 68.0207 11.264C67.6794 11.2853 67.3701 11.2853 67.0927 11.264C66.8367 11.2427 66.7087 11.232 66.7087 11.232C66.6021 11.2107 66.4421 11.1253 66.2287 10.976C66.0367 10.8267 65.8554 10.6667 65.6847 10.496C65.5141 10.3253 65.4287 10.1867 65.4287 10.08C65.4714 9.93067 65.5781 9.69601 65.7487 9.37601C65.9194 9.03467 66.1221 8.66134 66.3567 8.25601C66.6127 7.82934 66.8794 7.43467 67.1567 7.07201C67.4341 6.68801 67.7007 6.36801 67.9567 6.11201C68.5967 5.40801 69.3221 4.88534 70.1327 4.54401C70.9647 4.18134 71.8181 4.02134 72.6927 4.06401C73.3114 4.08534 73.7487 4.13867 74.0047 4.22401C74.2821 4.28801 74.5487 4.49067 74.8047 4.83201C74.9754 5.13067 75.0501 5.39734 75.0287 5.63201C75.0074 5.86667 74.9221 6.02667 74.7727 6.11201C74.6234 6.19734 74.4207 6.17601 74.1647 6.04801C73.8661 5.85601 73.4501 5.78134 72.9167 5.82401C72.4047 5.86667 71.8607 5.97334 71.2847 6.14401C70.8367 6.31467 70.3567 6.59201 69.8447 6.97601C69.3541 7.33867 69.0554 7.63734 68.9487 7.87201C68.8634 7.93601 68.7994 8.00001 68.7567 8.06401C68.7354 8.12801 68.6821 8.14934 68.5967 8.12801C68.5967 8.12801 68.5647 8.17067 68.5007 8.25601C68.4367 8.32001 68.4047 8.39467 68.4047 8.48001C68.2981 8.60801 68.2234 8.70401 68.1807 8.76801C68.1594 8.81067 68.1061 8.78934 68.0207 8.70401C68.0207 8.70401 68.0207 8.73601 68.0207 8.80001C68.0207 8.86401 68.0101 8.93867 67.9887 9.02401C67.9674 9.17334 67.9781 9.30134 68.0207 9.40801C68.0847 9.49334 68.3194 9.55734 68.7247 9.60001C69.2581 9.68534 69.6634 9.77067 69.9407 9.85601C70.2181 9.92001 70.6234 10.112 71.1567 10.432C71.7541 10.7733 72.2341 11.232 72.5967 11.808C72.9594 12.3627 73.2047 12.992 73.3327 13.696C73.4821 14.4 73.5034 15.1147 73.3967 15.84C73.3327 16.3093 73.2687 16.672 73.2047 16.928C73.1407 17.184 72.9594 17.536 72.6607 17.984C72.1701 18.6667 71.5727 19.2747 70.8687 19.808C70.1647 20.32 69.4287 20.7253 68.6607 21.024C67.8927 21.3013 67.1567 21.4507 66.4527 21.472C65.7701 21.4933 65.1941 21.344 64.7247 21.024ZM88.385 23.584C88.065 23.456 87.7343 23.3173 87.393 23.168C87.073 23.0187 86.7637 22.7947 86.465 22.496C86.1877 22.2187 85.9423 21.824 85.729 21.312C85.5157 20.6933 85.3663 20.0853 85.281 19.488C85.217 18.8907 85.1957 18.1973 85.217 17.408C85.217 16.2987 85.2917 15.3387 85.441 14.528C85.6117 13.696 85.8677 12.8533 86.209 12C86.2517 11.936 86.3263 11.7547 86.433 11.456C86.561 11.136 86.6997 10.7947 86.849 10.432C87.0197 10.0693 87.1477 9.79201 87.233 9.60001C87.4037 9.23734 87.6597 8.75734 88.001 8.16001C88.3637 7.54134 88.7477 6.94401 89.153 6.36801C89.7717 5.45067 90.2837 4.72534 90.689 4.19201C91.0943 3.65867 91.4783 3.21067 91.841 2.84801C92.2037 2.48534 92.609 2.14401 93.057 1.82401C93.5263 1.48267 94.1237 1.06667 94.849 0.576006C95.3183 0.234673 95.8303 0.0533403 96.385 0.0320072C96.961 0.0106729 97.4943 0.138673 97.985 0.416006C98.4757 0.672007 98.8383 1.05601 99.073 1.56801C99.3077 2.01601 99.425 2.56001 99.425 3.20001C99.425 3.81867 99.329 4.48001 99.137 5.18401C98.945 5.86667 98.6783 6.51734 98.337 7.13601C97.9957 7.75467 97.601 8.26667 97.153 8.67201C96.8757 8.92801 96.6197 9.02401 96.385 8.96001C96.1717 8.89601 95.9157 8.72534 95.617 8.44801C95.425 8.08534 95.3183 7.87201 95.297 7.80801C95.297 7.74401 95.3397 7.70134 95.425 7.68001C95.553 7.53067 95.7237 7.27467 95.937 6.91201C96.1503 6.54934 96.3637 6.16534 96.577 5.76001C96.7903 5.33334 96.9397 4.99201 97.025 4.73601C97.1957 3.84001 97.313 3.21067 97.377 2.84801C97.441 2.46401 97.377 2.17601 97.185 1.98401C97.0997 1.89867 96.9717 1.86667 96.801 1.88801C96.6517 1.90934 96.3957 2.01601 96.033 2.20801C95.5423 2.42134 94.9023 2.90134 94.113 3.64801C93.3237 4.37334 92.5983 5.18401 91.937 6.08001C91.0837 7.21067 90.369 8.21334 89.793 9.08801C89.217 9.96267 88.7797 10.8587 88.481 11.776C88.4383 11.8613 88.3637 12.0213 88.257 12.256C88.1717 12.4907 88.129 12.608 88.129 12.608C88.1503 12.6933 88.1183 12.9067 88.033 13.248C87.9477 13.568 87.8517 13.8453 87.745 14.08C87.5103 15.0613 87.3717 16.0853 87.329 17.152C87.2863 18.1973 87.3397 19.1253 87.489 19.936C87.6597 20.7467 87.905 21.312 88.225 21.632C88.5023 21.824 88.8757 21.888 89.345 21.824C89.8357 21.76 90.3903 21.6107 91.009 21.376C91.6277 21.1413 92.257 20.8853 92.897 20.608C93.409 20.3947 93.8783 20.16 94.305 19.904C94.7317 19.648 95.0517 19.424 95.265 19.232C95.4357 19.104 95.649 18.976 95.905 18.848C96.1823 18.6987 96.417 18.624 96.609 18.624C96.9077 18.5173 97.0783 18.4747 97.121 18.496C97.1637 18.5173 97.185 18.6133 97.185 18.784C97.185 19.0827 97.0143 19.4133 96.673 19.776C96.353 20.1387 95.937 20.4693 95.425 20.768C95.2543 20.9387 95.0303 21.12 94.753 21.312C94.4757 21.504 94.1877 21.6533 93.889 21.76C93.441 22.1013 92.8863 22.432 92.225 22.752C91.5637 23.072 90.8917 23.3173 90.209 23.488C89.5477 23.6587 88.9397 23.6907 88.385 23.584ZM102.039 21.312C101.761 21.312 101.537 21.2587 101.367 21.152C101.217 21.0453 101.025 20.896 100.791 20.704C100.385 20.2773 100.097 19.872 99.9267 19.488C99.7561 19.0827 99.7027 18.6987 99.7667 18.336C99.8307 18.1653 99.8521 18.0053 99.8307 17.856C99.8307 17.6853 99.8307 17.6 99.8307 17.6C99.7241 17.4933 99.6921 17.4293 99.7347 17.408C99.7774 17.3653 99.8201 17.3013 99.8627 17.216C99.9907 17.216 100.033 17.0987 99.9907 16.864C99.9481 16.6933 100.033 16.32 100.247 15.744C100.46 15.168 100.727 14.624 101.047 14.112C101.175 13.8987 101.367 13.6213 101.623 13.28C101.879 12.9173 102.156 12.5653 102.455 12.224C102.775 11.8613 103.063 11.5733 103.319 11.36C103.852 10.912 104.321 10.5813 104.727 10.368C105.132 10.1547 105.569 9.99467 106.039 9.88801C106.508 9.78134 106.828 9.72801 106.999 9.72801C107.191 9.72801 107.447 9.89867 107.767 10.24C108.257 10.4533 108.609 10.7093 108.823 11.008C109.057 11.3067 109.207 11.744 109.271 12.32C109.335 12.96 109.281 13.696 109.111 14.528C108.961 15.3387 108.46 16.352 107.607 17.568C107.073 18.336 106.583 18.912 106.135 19.296C105.687 19.6587 105.153 20.0213 104.535 20.384C104.087 20.6827 103.681 20.9067 103.319 21.056C102.956 21.184 102.529 21.2693 102.039 21.312ZM105.111 17.92C105.623 17.344 106.028 16.8 106.327 16.288C106.647 15.776 106.945 15.1253 107.223 14.336C107.308 14.1013 107.361 13.8133 107.383 13.472C107.404 13.1093 107.393 12.7787 107.351 12.48C107.329 12.16 107.255 11.9787 107.127 11.936C106.871 11.7867 106.561 11.744 106.199 11.808C105.836 11.8507 105.441 12.0533 105.015 12.416C104.353 12.9707 103.777 13.664 103.287 14.496C102.796 15.3067 102.316 16.2347 101.847 17.28C101.527 18.048 101.452 18.6667 101.623 19.136C101.815 19.584 102.209 19.744 102.807 19.616C103.425 19.4667 104.193 18.9013 105.111 17.92ZM118.536 25.184C118.408 25.2693 118.259 25.248 118.088 25.12C117.939 24.992 117.715 24.7573 117.416 24.416C117.267 24.2453 117.171 24.064 117.128 23.872C117.085 23.68 117.096 23.3173 117.16 22.784C117.245 22.5493 117.288 22.3253 117.288 22.112C117.309 21.8987 117.32 21.7493 117.32 21.664C117.32 21.536 117.352 21.2373 117.416 20.768C117.501 20.2987 117.587 19.808 117.672 19.296C117.757 18.7627 117.832 18.3573 117.896 18.08C117.896 18.0587 117.907 18.0053 117.928 17.92C117.949 17.8347 117.971 17.76 117.992 17.696C118.035 17.504 118.088 17.248 118.152 16.928C118.237 16.608 118.312 16.2133 118.376 15.744C118.483 15.3387 118.589 14.9333 118.696 14.528C118.803 14.1013 118.877 13.7493 118.92 13.472C118.664 13.472 118.301 13.4933 117.832 13.536C117.363 13.5787 116.872 13.6427 116.36 13.728C115.869 13.792 115.443 13.856 115.08 13.92C114.739 13.9627 114.547 14.0053 114.504 14.048C114.419 14.0907 114.301 14.2827 114.152 14.624C114.024 14.944 113.885 15.3493 113.736 15.84C113.587 16.3093 113.469 16.8 113.384 17.312C113.128 18.2933 112.989 19.3067 112.968 20.352C112.947 21.376 113 22.1333 113.128 22.624C113.256 23.136 113.288 23.552 113.224 23.872C113.181 24.192 113.032 24.4053 112.776 24.512C112.371 24.5333 112.008 24.224 111.688 23.584C111.389 22.9653 111.24 22.1333 111.24 21.088C111.155 20.2133 111.229 19.104 111.464 17.76C111.699 16.3947 112.051 14.8693 112.52 13.184C112.691 12.608 112.925 11.9253 113.224 11.136C113.523 10.3467 113.832 9.56801 114.152 8.80001C114.493 8.03201 114.792 7.39201 115.048 6.88001C115.304 6.34667 115.464 6.04801 115.528 5.98401C115.656 6.02667 115.72 5.93067 115.72 5.69601C115.72 5.65334 115.805 5.49334 115.976 5.21601C116.147 4.93867 116.307 4.64001 116.456 4.32001C116.733 3.91467 117.064 3.52001 117.448 3.13601C117.832 2.73067 118.227 2.37867 118.632 2.08001C119.059 1.76001 119.443 1.53601 119.784 1.40801C120.104 1.28001 120.424 1.21601 120.744 1.21601C121.277 1.21601 121.8 1.45067 122.312 1.92001C122.845 2.36801 123.219 2.86934 123.432 3.42401C123.795 2.99734 124.2 2.56001 124.648 2.11201C125.096 1.66401 125.459 1.33334 125.736 1.12001C126.205 0.88534 126.579 0.725341 126.856 0.640007C127.133 0.554674 127.496 0.512007 127.944 0.512007C128.349 0.512007 128.616 0.56534 128.744 0.672007C128.893 0.75734 129.107 0.928006 129.384 1.18401C129.683 1.50401 129.853 1.71734 129.896 1.82401C129.939 1.93067 129.96 2.13334 129.96 2.43201C129.917 2.64534 129.832 2.91201 129.704 3.23201C129.597 3.53067 129.469 3.84001 129.32 4.16001C129.171 4.45867 129.021 4.71467 128.872 4.92801C128.744 5.14134 128.637 5.24801 128.552 5.24801C128.061 5.39734 127.816 5.14134 127.816 4.48001C127.816 4.33067 127.773 4.19201 127.688 4.06401C127.624 3.91467 127.592 3.84001 127.592 3.84001C127.592 3.77601 127.603 3.66934 127.624 3.52001C127.667 3.34934 127.731 3.18934 127.816 3.04001C127.923 2.82667 127.944 2.66667 127.88 2.56001C127.837 2.45334 127.699 2.43201 127.464 2.49601C127.4 2.53867 127.229 2.66667 126.952 2.88001C126.675 3.09334 126.376 3.33867 126.056 3.61601C125.757 3.87201 125.491 4.11734 125.256 4.35201C125.021 4.58667 124.904 4.73601 124.904 4.80001C124.904 4.80001 124.861 4.89601 124.776 5.08801C124.691 5.25867 124.531 5.48267 124.296 5.76001C124.147 5.97334 124.008 6.18667 123.88 6.40001C123.773 6.59201 123.72 6.70934 123.72 6.75201C123.72 6.83734 123.709 6.93334 123.688 7.04001C123.688 7.12534 123.635 7.16801 123.528 7.16801C123.528 7.16801 123.496 7.26401 123.432 7.45601C123.368 7.64801 123.251 7.89334 123.08 8.19201C122.995 8.40534 122.888 8.62934 122.76 8.86401C122.632 9.07734 122.525 9.22667 122.44 9.31201H122.472C122.472 9.31201 122.419 9.45067 122.312 9.72801C122.227 9.98401 122.131 10.2613 122.024 10.56C121.917 10.8373 121.864 10.9973 121.864 11.04C121.864 11.1253 122.013 11.168 122.312 11.168C122.632 11.168 123.005 11.136 123.432 11.072C123.859 10.9867 124.243 10.9013 124.584 10.816C124.883 10.7307 125.085 10.688 125.192 10.688C125.299 10.688 125.512 10.7307 125.832 10.816C126.003 10.9227 126.141 11.0827 126.248 11.296C126.376 11.488 126.461 11.68 126.504 11.872C126.568 12.0427 126.568 12.1707 126.504 12.256C126.483 12.3413 126.248 12.4587 125.8 12.608C125.352 12.7573 124.904 12.8747 124.456 12.96C124.072 13.0453 123.603 13.1413 123.048 13.248C122.515 13.3547 122.035 13.4507 121.608 13.536C121.181 13.6213 120.968 13.696 120.968 13.76C120.883 13.76 120.808 13.8133 120.744 13.92C120.68 14.0053 120.648 14.08 120.648 14.144C120.648 14.4427 120.605 14.6667 120.52 14.816C120.477 14.944 120.403 15.2 120.296 15.584C120.189 15.968 120.072 16.3947 119.944 16.864C119.837 17.3333 119.741 17.76 119.656 18.144C119.592 18.528 119.56 18.784 119.56 18.912C119.432 19.0613 119.357 19.2533 119.336 19.488C119.315 19.7013 119.304 19.8933 119.304 20.064C119.219 20.2347 119.165 20.3947 119.144 20.544C119.123 20.672 119.112 20.7787 119.112 20.864C119.112 20.8853 119.112 20.928 119.112 20.992C119.112 21.056 119.101 21.12 119.08 21.184C119.059 21.3973 119.027 21.6747 118.984 22.016C118.963 22.3787 118.952 22.7307 118.952 23.072L118.856 24C118.835 24.2773 118.803 24.512 118.76 24.704C118.717 24.9173 118.643 25.0773 118.536 25.184ZM115.624 12.064C115.709 12.064 115.987 12.0427 116.456 12C116.925 11.936 117.459 11.8613 118.056 11.776C118.675 11.6907 119.229 11.616 119.72 11.552L119.912 11.2C120.232 10.304 120.499 9.55734 120.712 8.96001C120.925 8.34134 121.139 7.80801 121.352 7.36001L121.416 7.07201C121.416 7.02934 121.459 6.90134 121.544 6.68801C121.651 6.47467 121.704 6.26134 121.704 6.04801C121.853 5.32267 121.928 4.75734 121.928 4.35201C121.949 3.94667 121.875 3.65867 121.704 3.48801C121.555 3.29601 121.288 3.20001 120.904 3.20001C120.797 3.17867 120.627 3.21067 120.392 3.29601C120.179 3.38134 119.976 3.48801 119.784 3.61601C119.613 3.72267 119.528 3.82934 119.528 3.93601V4.06401C119.464 4.04267 119.261 4.22401 118.92 4.60801C118.6 4.97067 118.237 5.41867 117.832 5.95201C117.448 6.46401 117.128 6.93334 116.872 7.36001C116.701 7.72267 116.499 8.22401 116.264 8.86401C116.029 9.50401 115.731 10.2933 115.368 11.232L115.112 12L115.624 12.064ZM130.184 21.888C129.245 21.888 128.477 21.536 127.88 20.832C127.283 20.1067 126.995 19.2107 127.016 18.144C127.059 17.376 127.208 16.5547 127.464 15.68C127.741 14.784 128.104 13.9307 128.552 13.12C129 12.288 129.491 11.5627 130.024 10.944C130.557 10.3253 131.112 9.88801 131.688 9.63201C131.901 9.52534 132.125 9.44001 132.36 9.37601C132.616 9.31201 132.872 9.28001 133.128 9.28001C133.363 9.28001 133.608 9.32267 133.864 9.40801C134.12 9.47201 134.333 9.54667 134.504 9.63201C134.867 9.78134 135.144 9.96267 135.336 10.176C135.528 10.3893 135.699 10.72 135.848 11.168C135.912 11.5733 135.944 11.8613 135.944 12.032C135.944 12.2027 135.891 12.4587 135.784 12.8C135.528 13.568 135.197 14.2293 134.792 14.784C134.387 15.3387 133.843 15.808 133.16 16.192C132.989 16.2987 132.787 16.384 132.552 16.448C132.339 16.4907 132.115 16.512 131.88 16.512C131.453 16.512 131.037 16.4373 130.632 16.288C130.248 16.1173 129.939 15.872 129.704 15.552L129.48 15.296L129.384 15.552C129.171 16.128 129 16.6613 128.872 17.152C128.765 17.6427 128.712 18.0907 128.712 18.496C128.712 18.752 128.733 18.9973 128.776 19.232C128.84 19.4667 128.925 19.6693 129.032 19.84C129.117 19.968 129.256 20.064 129.448 20.128C129.661 20.1707 129.885 20.192 130.12 20.192C130.269 20.192 130.419 20.192 130.568 20.192C130.739 20.1707 130.899 20.128 131.048 20.064C131.411 19.936 131.699 19.7973 131.912 19.648C132.147 19.4987 132.381 19.3387 132.616 19.168L132.744 19.104H132.712C132.968 18.976 133.192 18.848 133.384 18.72C133.597 18.592 133.704 18.528 133.704 18.528C133.789 18.528 133.875 18.4747 133.96 18.368C134.131 18.2827 134.344 18.3147 134.6 18.464C134.877 18.6133 135.016 18.8053 135.016 19.04C134.995 19.1467 134.899 19.3173 134.728 19.552C134.557 19.7653 134.365 19.968 134.152 20.16C133.96 20.352 133.8 20.4587 133.672 20.48C133.651 20.5013 133.576 20.544 133.448 20.608C133.32 20.6507 133.235 20.6933 133.192 20.736H133.224C133.032 20.992 132.84 21.12 132.648 21.12H132.392C132.307 21.2693 132.029 21.44 131.56 21.632C131.091 21.8027 130.632 21.888 130.184 21.888ZM131.624 14.848C132.008 14.848 132.339 14.7413 132.616 14.528C132.915 14.2933 133.171 14.0373 133.384 13.76C133.811 13.184 134.056 12.6293 134.12 12.096C134.205 11.5413 134.141 11.1573 133.928 10.944C133.8 10.88 133.683 10.848 133.576 10.848C133.491 10.8267 133.309 10.8587 133.032 10.944C132.84 10.9867 132.573 11.1467 132.232 11.424C131.891 11.7013 131.549 12.0107 131.208 12.352C130.888 12.6933 130.643 12.9813 130.472 13.216L130.056 13.888C130.227 13.824 130.387 13.792 130.536 13.792C130.707 13.7707 130.803 13.7813 130.824 13.824C130.824 14.016 130.856 14.1973 130.92 14.368C131.005 14.5173 131.101 14.6347 131.208 14.72C131.336 14.8053 131.475 14.848 131.624 14.848ZM139.758 21.024C138.926 20.6827 138.382 20.2133 138.126 19.616C137.892 18.9973 137.849 18.048 137.998 16.768C138.041 16.1067 138.062 15.6693 138.062 15.456C138.062 15.2427 137.945 15.0293 137.71 14.816C137.646 14.7307 137.529 14.6133 137.358 14.464C137.209 14.3147 137.145 14.1867 137.166 14.08C137.145 13.9307 137.156 13.7707 137.198 13.6C137.241 13.408 137.305 13.312 137.39 13.312C137.476 13.312 137.561 13.2907 137.646 13.248C137.753 13.2053 137.849 13.2053 137.934 13.248C138.02 13.248 138.116 13.2587 138.222 13.28C138.329 13.3013 138.382 13.3547 138.382 13.44C138.468 13.5893 138.606 13.6107 138.798 13.504C138.99 13.376 139.193 13.0987 139.406 12.672C139.62 12.3307 139.897 11.9893 140.238 11.648C140.601 11.3067 140.953 10.9973 141.294 10.72C141.657 10.4213 141.956 10.208 142.19 10.08C142.297 10.0373 142.457 9.98401 142.67 9.92001C142.884 9.85601 143.108 9.80267 143.342 9.76001C143.598 9.71734 143.812 9.70667 143.982 9.72801C144.366 9.74934 144.686 9.85601 144.942 10.048C145.22 10.24 145.476 10.464 145.71 10.72C145.988 10.912 146.158 11.168 146.222 11.488C146.308 11.808 146.329 12.1493 146.286 12.512C146.244 12.8747 146.148 13.2053 145.998 13.504C145.934 13.7173 145.753 13.9733 145.454 14.272C145.156 14.5707 144.814 14.8587 144.43 15.136C144.046 15.4133 143.694 15.616 143.374 15.744C143.097 15.808 142.734 15.8613 142.286 15.904C141.86 15.9467 141.454 15.968 141.07 15.968C140.708 15.9467 140.462 15.904 140.334 15.84C140.185 15.7547 140.068 15.872 139.982 16.192C139.897 16.512 139.833 16.9707 139.79 17.568C139.748 18.0373 139.748 18.3787 139.79 18.592C139.833 18.8053 139.876 18.9547 139.918 19.04C140.068 19.1893 140.27 19.3813 140.526 19.616C140.804 19.8293 141.188 19.8613 141.678 19.712C142.084 19.6053 142.478 19.328 142.862 18.88C143.268 18.432 143.641 18.0693 143.982 17.792C144.068 17.6427 144.206 17.5573 144.398 17.536C144.612 17.4933 144.836 17.504 145.07 17.568C145.305 17.7173 145.401 17.8987 145.358 18.112C145.337 18.304 145.23 18.6027 145.038 19.008C144.974 19.1573 144.825 19.3493 144.59 19.584C144.377 19.7973 144.132 20.0213 143.854 20.256C143.598 20.4693 143.364 20.64 143.15 20.768C142.51 21.1093 141.913 21.2907 141.358 21.312C140.804 21.312 140.27 21.216 139.758 21.024ZM141.646 14.528C142.116 14.4213 142.489 14.3467 142.766 14.304C143.044 14.2613 143.31 14.144 143.566 13.952C143.822 13.7387 144.142 13.344 144.526 12.768C144.612 12.5333 144.633 12.2987 144.59 12.064C144.569 11.8293 144.516 11.6693 144.43 11.584C144.238 11.3707 144.004 11.3067 143.726 11.392C143.47 11.456 143.225 11.5733 142.99 11.744C142.841 11.808 142.617 11.968 142.318 12.224C142.041 12.4587 141.764 12.736 141.486 13.056C141.209 13.3547 140.985 13.632 140.814 13.888C140.644 14.144 140.601 14.2933 140.686 14.336C140.644 14.4213 140.761 14.4747 141.038 14.496C141.337 14.5173 141.54 14.528 141.646 14.528Z" fill="#231403"/>
</svg>
